<svg width="11" height="10" viewBox="0 0 11 10" fill="none" xmlns="http://www.w3.org/2000/svg">
<path d="M5.23502 3.35071C4.32693 3.35071 3.58586 4.09179 3.58586 4.9999C3.58586 5.908 4.32693 6.64908 5.23502 6.64908C6.14311 6.64908 6.88418 5.908 6.88418 4.9999C6.88418 4.09179 6.14311 3.35071 5.23502 3.35071ZM10.1813 4.9999C10.1813 4.31696 10.1874 3.64022 10.1491 2.95852C10.1107 2.16671 9.9301 1.46398 9.35111 0.884972C8.77087 0.304726 8.06939 0.125332 7.2776 0.0869785C6.59468 0.0486253 5.91794 0.0548114 5.23626 0.0548114C4.55333 0.0548114 3.8766 0.0486253 3.19492 0.0869785C2.40312 0.125332 1.70041 0.305963 1.12141 0.884972C0.541171 1.46522 0.361781 2.16671 0.323428 2.95852C0.285076 3.64145 0.291262 4.3182 0.291262 4.9999C0.291262 5.68159 0.285076 6.35958 0.323428 7.04128C0.361781 7.83308 0.542408 8.53581 1.12141 9.11482C1.70164 9.69507 2.40312 9.87446 3.19492 9.91282C3.87784 9.95117 4.55457 9.94498 5.23626 9.94498C5.91918 9.94498 6.59591 9.95117 7.2776 9.91282C8.06939 9.87446 8.77211 9.69383 9.35111 9.11482C9.93134 8.53458 10.1107 7.83308 10.1491 7.04128C10.1887 6.35958 10.1813 5.68283 10.1813 4.9999ZM5.23502 7.53739C3.83082 7.53739 2.69757 6.40412 2.69757 4.9999C2.69757 3.59568 3.83082 2.4624 5.23502 2.4624C6.63921 2.4624 7.77247 3.59568 7.77247 4.9999C7.77247 6.40412 6.63921 7.53739 5.23502 7.53739ZM7.87639 2.9511C7.54854 2.9511 7.28378 2.68633 7.28378 2.35848C7.28378 2.03062 7.54854 1.76586 7.87639 1.76586C8.20424 1.76586 8.469 2.03062 8.469 2.35848C8.4691 2.43633 8.45383 2.51343 8.42409 2.58538C8.39434 2.65732 8.35069 2.72269 8.29565 2.77774C8.2406 2.83279 8.17523 2.87644 8.10329 2.90618C8.03135 2.93593 7.95424 2.95119 7.87639 2.9511Z" fill="#AAAAAA"/>
</svg>
