<svg width="36" height="43" viewBox="0 0 36 43" fill="none" xmlns="http://www.w3.org/2000/svg">
<path d="M34 18C34 30.4444 18 41.1111 18 41.1111C18 41.1111 2 30.4444 2 18C2 13.7565 3.68571 9.68687 6.68629 6.68629C9.68687 3.68571 13.7565 2 18 2C22.2435 2 26.3131 3.68571 29.3137 6.68629C32.3143 9.68687 34 13.7565 34 18Z" stroke="#0098DA" stroke-width="3" stroke-linecap="round" stroke-linejoin="round"/>
<path d="M18.0001 23.3334C20.9456 23.3334 23.3334 20.9455 23.3334 18C23.3334 15.0545 20.9456 12.6667 18.0001 12.6667C15.0546 12.6667 12.6667 15.0545 12.6667 18C12.6667 20.9455 15.0546 23.3334 18.0001 23.3334Z" stroke="#0098DA" stroke-width="3" stroke-linecap="round" stroke-linejoin="round"/>
</svg>
