<svg width="36" height="36" viewBox="0 0 36 36" fill="none" xmlns="http://www.w3.org/2000/svg">
<path d="M34.1108 26.0057V30.8326C34.1126 31.2807 34.0209 31.7242 33.8413 32.1348C33.6618 32.5453 33.3985 32.9139 33.0684 33.2168C32.7382 33.5197 32.3483 33.7504 31.9239 33.8939C31.4994 34.0375 31.0496 34.0908 30.6033 34.0505C25.6523 33.5125 20.8965 31.8207 16.7181 29.111C12.8306 26.6407 9.53464 23.3448 7.06436 19.4573C4.34519 15.2599 2.653 10.4809 2.12488 5.50767C2.08467 5.06274 2.13755 4.61432 2.28014 4.19094C2.42273 3.76757 2.65192 3.37853 2.95311 3.04858C3.2543 2.71864 3.62089 2.45502 4.02954 2.27452C4.43819 2.09401 4.87995 2.00058 5.32669 2.00016H10.1535C10.9344 1.99247 11.6914 2.26898 12.2834 2.77814C12.8755 3.2873 13.2622 3.99437 13.3714 4.76755C13.5752 6.31225 13.953 7.82895 14.4977 9.28871C14.7142 9.86459 14.761 10.4905 14.6327 11.0921C14.5044 11.6938 14.2063 12.2461 13.7737 12.6836L11.7303 14.727C14.0207 18.755 17.3559 22.0902 21.384 24.3807L23.4274 22.3373C23.8648 21.9047 24.4171 21.6066 25.0188 21.4783C25.6205 21.3499 26.2464 21.3968 26.8223 21.6133C28.282 22.158 29.7987 22.5358 31.3434 22.7395C32.125 22.8498 32.8388 23.2435 33.349 23.8457C33.8593 24.4479 34.1304 25.2166 34.1108 26.0057Z" stroke="#0098DA" stroke-width="3" stroke-linecap="round" stroke-linejoin="round"/>
</svg>
